<svg width="463" height="63" viewBox="0 0 463 63" fill="none" xmlns="http://www.w3.org/2000/svg">
<path d="M104 5V56.5" stroke="black" stroke-width="2"/>
<path d="M29.2838 24.0826C29.0438 23.205 28.804 22.4528 28.564 21.8259C28.3241 21.1677 28.0693 20.5879 27.7993 20.0864C27.5594 19.5536 27.2745 19.0834 26.9446 18.676C26.6447 18.2685 26.2848 17.8454 25.865 17.4066C24.8454 16.3096 23.6758 15.4947 22.3565 14.9619C21.0669 14.3977 19.6875 14.1156 18.2179 14.1156C16.3587 14.1156 14.6644 14.4917 13.1349 15.244C11.6355 15.9962 10.346 17.0775 9.26643 18.4879C8.21684 19.867 7.40715 21.5438 6.83737 23.5184C6.26758 25.493 5.9827 27.687 5.9827 30.1003C5.9827 33.2345 6.38754 35.9771 7.19722 38.3278C8.00692 40.6785 9.16147 42.512 10.6609 43.8284C12.91 45.709 15.5941 46.6492 18.7128 46.6492C20.8419 46.6492 22.8062 46.226 24.6055 45.3799C26.4049 44.5335 28.2641 43.1546 30.1834 41.2427L31.083 42.1829C29.5236 44.3456 27.5294 46.0224 25.1004 47.2134C22.7013 48.4045 20.0323 49 17.0934 49C14.5445 49 12.2203 48.5611 10.1211 47.6835C8.02191 46.806 6.22261 45.5835 4.72319 44.0165C3.22376 42.418 2.0542 40.5061 1.21453 38.2808C0.404852 36.0554 0 33.5794 0 30.8526C0 27.7497 0.509797 24.9602 1.52942 22.4841C2.54902 19.9767 4.04844 17.8767 6.02767 16.1842C7.58708 14.8678 9.34141 13.8492 11.2907 13.1283C13.2399 12.3761 15.2041 12 17.1834 12C19.7325 12 22.2514 12.4388 24.7405 13.3164C25.5802 13.6298 26.2549 13.7865 26.7646 13.7865C27.2745 13.7865 27.7094 13.6298 28.0693 13.3164C28.4591 13.003 28.7289 12.5642 28.8789 12H29.9584L30.4533 24.0826H29.2838ZM54.384 48.2477H34.3667V47.5894L43.4983 37.4815C45.6574 35.0681 47.3069 32.6705 48.4463 30.2884C49.616 27.9063 50.2007 25.6654 50.2007 23.5654C50.2007 21.2774 49.5409 19.4439 48.2215 18.0648C46.9319 16.6544 45.1627 15.9492 42.9134 15.9492C42.0139 15.9492 41.2191 16.0745 40.5294 16.3253C39.8397 16.5447 39.2099 16.9365 38.6401 17.5006C38.0703 18.0335 37.5306 18.7387 37.0207 19.6162C36.5109 20.4938 36.0012 21.5908 35.4913 22.9072L34.4117 22.6722C34.6216 21.7319 34.8317 20.9013 35.0416 20.1804C35.2814 19.4595 35.5214 18.817 35.7612 18.2528C36.0311 17.6887 36.3159 17.1715 36.616 16.7014C36.9158 16.2313 37.2756 15.7611 37.6955 15.291C38.6551 14.2253 39.7646 13.4104 41.0243 12.8463C42.3137 12.2821 43.6632 12 45.0727 12C46.4222 12 47.6666 12.2507 48.8062 12.7522C49.9757 13.2224 50.9803 13.8805 51.82 14.7268C52.6897 15.5731 53.3645 16.576 53.8443 17.7357C54.3541 18.864 54.609 20.0864 54.609 21.4028C54.609 23.5654 54.0691 25.6967 52.9896 27.7967C51.94 29.8967 50.2906 32.216 48.0416 34.7547L39.4049 44.1575H51.6401C52.2099 44.1575 52.7048 44.1261 53.1245 44.0635C53.5443 43.9695 53.9193 43.7971 54.2491 43.5463C54.609 43.2956 54.9538 42.9352 55.2838 42.465C55.6435 41.9948 56.0635 41.368 56.5433 40.5844L57.2179 40.9136L54.384 48.2477ZM89.2007 24.0826C88.9608 23.205 88.7208 22.4528 88.481 21.8259C88.241 21.1677 87.9861 20.5879 87.7162 20.0864C87.4764 19.5536 87.1914 19.0834 86.8616 18.676C86.5617 18.2685 86.2018 17.8454 85.7819 17.4066C84.7624 16.3096 83.5929 15.4947 82.2733 14.9619C80.9838 14.3977 79.6044 14.1156 78.135 14.1156C76.2756 14.1156 74.5813 14.4917 73.0518 15.244C71.5525 15.9962 70.2629 17.0775 69.1834 18.4879C68.1338 19.867 67.3241 21.5438 66.7544 23.5184C66.1846 25.493 65.8996 27.687 65.8996 30.1003C65.8996 33.2345 66.3045 35.9771 67.1141 38.3278C67.9239 40.6785 69.0784 42.512 70.5778 43.8284C72.8269 45.709 75.5109 46.6492 78.6297 46.6492C80.759 46.6492 82.7232 46.226 84.5224 45.3799C86.3218 44.5335 88.181 43.1546 90.1003 41.2427L91 42.1829C89.4406 44.3456 87.4463 46.0224 85.0173 47.2134C82.6182 48.4045 79.9492 49 77.0104 49C74.4613 49 72.1372 48.5611 70.038 47.6835C67.9388 46.806 66.1396 45.5835 64.6401 44.0165C63.1406 42.418 61.9711 40.5061 61.1315 38.2808C60.3218 36.0554 59.9169 33.5794 59.9169 30.8526C59.9169 27.7497 60.4268 24.9602 61.4463 22.4841C62.466 19.9767 63.9654 17.8767 65.9446 16.1842C67.5039 14.8678 69.2583 13.8492 71.2077 13.1283C73.1569 12.3761 75.1211 12 77.1003 12C79.6493 12 82.1683 12.4388 84.6574 13.3164C85.4971 13.6298 86.1718 13.7865 86.6817 13.7865C87.1914 13.7865 87.6262 13.6298 87.9861 13.3164C88.376 13.003 88.6459 12.5642 88.7958 12H89.8755L90.3702 24.0826H89.2007Z" fill="black"/>
<path d="M355.175 0.81818L345.516 59H329.72L336.993 15.3636H336.652L322.675 22.9773L324.834 9.56818L340.629 0.81818H355.175Z" fill="black"/>
<path d="M358.558 31.72C357.338 31.72 356.068 31.38 354.748 30.7L355.288 29.08C356.168 29.36 356.858 29.5 357.358 29.5C358.798 29.5 359.518 28.6 359.518 26.8C359.518 26.52 359.088 21.42 358.228 11.5L365.368 11.05L363.688 26.77C363.328 30.07 361.618 31.72 358.558 31.72ZM382.255 25.48C382.255 27.66 381.775 29.25 380.815 30.25C379.875 31.23 378.125 31.72 375.565 31.72C373.005 31.72 371.005 31.14 369.565 29.98C369.265 28.54 369.115 27.1 369.115 25.66C369.115 24.22 369.315 22.87 369.715 21.61C370.135 20.33 370.655 19.24 371.275 18.34C372.575 16.5 373.735 15.33 374.755 14.83C376.675 15.81 378.365 17.14 379.825 18.82C381.445 20.66 382.255 22.88 382.255 25.48ZM378.775 24.67C378.775 22.77 378.375 21.03 377.575 19.45C375.915 20.33 374.545 21.67 373.465 23.47C372.385 25.27 371.845 27.09 371.845 28.93C372.485 29.05 373.405 29.11 374.605 29.11C375.805 29.11 377.035 28.9 378.295 28.48C378.615 27.26 378.775 25.99 378.775 24.67ZM397.708 15.31C398.068 15.31 398.428 15.37 398.788 15.49C399.508 16.35 400.088 17.65 400.528 19.39C400.988 21.11 401.218 22.91 401.218 24.79C401.218 27.21 400.688 28.97 399.628 30.07C398.588 31.17 396.658 31.72 393.838 31.72C391.538 31.72 389.348 31.2 387.268 30.16L385.858 10.51L392.278 9.52L391.198 21.55H391.468C392.268 19.63 393.208 18.11 394.288 16.99C395.388 15.87 396.528 15.31 397.708 15.31ZM390.478 29.71C391.018 29.77 391.788 29.8 392.788 29.8C393.788 29.8 394.758 29.68 395.698 29.44C395.998 27.9 396.148 26.45 396.148 25.09C396.148 23.71 396.088 22.44 395.968 21.28C395.848 20.12 395.708 19.32 395.548 18.88C392.988 19.9 391.298 23.51 390.478 29.71Z" fill="black"/>
<path d="M359.324 51.38C358.964 51.5 358.674 51.56 358.454 51.56L357.644 59.12L354.644 59.42L352.934 40.1C353.994 39.76 355.394 39.45 357.134 39.17C358.894 38.89 360.574 38.75 362.174 38.75C364.734 38.75 366.784 39.23 368.324 40.19C368.684 41.27 368.864 42.26 368.864 43.16C368.864 45.68 367.414 47.76 364.514 49.4L369.554 58.97L367.454 60.14L359.324 51.38ZM363.074 43.97C363.074 42.55 362.444 41.46 361.184 40.7C360.704 40.7 360.164 40.8 359.564 41L358.664 49.64C360.044 49.02 361.124 48.19 361.904 47.15C362.684 46.09 363.074 45.03 363.074 43.97ZM378.169 42.83C383.009 44.77 385.429 47.18 385.429 50.06C385.429 51.56 384.999 52.65 384.139 53.33C383.299 53.99 381.729 54.32 379.429 54.32C377.969 54.32 376.769 54.21 375.829 53.99C375.449 54.93 375.259 55.91 375.259 56.93C376.159 57.05 377.179 57.11 378.319 57.11C380.399 57.11 382.359 56.78 384.199 56.12L385.099 59.03C383.639 59.49 381.999 59.72 380.179 59.72C376.939 59.72 374.559 59.13 373.039 57.95C372.719 56.53 372.559 55.19 372.559 53.93C372.559 51.41 373.109 49.14 374.209 47.12C375.329 45.1 376.649 43.67 378.169 42.83ZM376.429 52.58C376.689 52.6 377.339 52.61 378.379 52.61C379.439 52.61 380.649 52.47 382.009 52.19C382.069 51.81 382.099 51.43 382.099 51.05C382.099 49.85 381.769 48.7 381.109 47.6C379.129 48.92 377.569 50.58 376.429 52.58ZM388.884 49.13C388.884 46.57 390.234 44.23 392.934 42.11L397.854 45.41C395.634 46.83 394.524 48.32 394.524 49.88C394.524 50.7 394.974 51.77 395.874 53.09C396.794 54.41 397.254 55.44 397.254 56.18C397.254 58.8 395.454 60.82 391.854 62.24L390.534 60.47C392.114 59.61 392.904 58.66 392.904 57.62C392.904 56.64 392.234 55.4 390.894 53.9C390.394 53.34 389.934 52.63 389.514 51.77C389.094 50.91 388.884 50.03 388.884 49.13ZM410.242 55.49C410.982 54.53 411.492 53.49 411.772 52.37C412.052 51.25 412.192 50.28 412.192 49.46C412.192 48.62 412.072 47 411.832 44.6L418.252 43.61L416.332 59.18L413.362 59.45L412.762 53.75H412.552C411.072 57.71 408.712 59.69 405.472 59.69C404.992 59.69 404.592 59.61 404.272 59.45C403.252 58.21 402.552 56.11 402.172 53.15C401.792 50.17 401.602 47.2 401.602 44.24L407.602 43.79C407.242 47.29 407.062 49.91 407.062 51.65C407.062 53.39 407.212 55.26 407.512 57.26C408.612 57.02 409.522 56.43 410.242 55.49ZM433.655 43.31C434.035 43.31 434.405 43.37 434.765 43.49C435.545 44.45 436.175 46.19 436.655 48.71H436.895C437.615 47.03 438.445 45.71 439.385 44.75C440.345 43.79 441.335 43.31 442.355 43.31C442.735 43.31 443.105 43.37 443.465 43.49C444.485 44.73 445.185 46.9 445.565 50C445.945 53.1 446.135 56.16 446.135 59.18L440.735 59.45C440.735 54.73 440.585 50.54 440.285 46.88C437.885 47.84 436.295 51.94 435.515 59.18L432.035 59.45C432.035 54.73 431.885 50.54 431.585 46.88C430.685 47.24 429.805 48.2 428.945 49.76C428.105 51.3 427.485 53.71 427.085 56.99L426.815 59.18L423.845 59.45L422.315 44.57L428.735 43.58L428.165 48.26H428.375C429.915 44.96 431.675 43.31 433.655 43.31ZM455.366 42.83C460.206 44.77 462.626 47.18 462.626 50.06C462.626 51.56 462.196 52.65 461.336 53.33C460.496 53.99 458.926 54.32 456.626 54.32C455.166 54.32 453.966 54.21 453.026 53.99C452.646 54.93 452.456 55.91 452.456 56.93C453.356 57.05 454.376 57.11 455.516 57.11C457.596 57.11 459.556 56.78 461.396 56.12L462.296 59.03C460.836 59.49 459.196 59.72 457.376 59.72C454.136 59.72 451.756 59.13 450.236 57.95C449.916 56.53 449.756 55.19 449.756 53.93C449.756 51.41 450.306 49.14 451.406 47.12C452.526 45.1 453.846 43.67 455.366 42.83ZM453.626 52.58C453.886 52.6 454.536 52.61 455.576 52.61C456.636 52.61 457.846 52.47 459.206 52.19C459.266 51.81 459.296 51.43 459.296 51.05C459.296 49.85 458.966 48.7 458.306 47.6C456.326 48.92 454.766 50.58 453.626 52.58Z" fill="black"/>
<path d="M109 5L329 6L323.5 9.5L321 25L333.5 18.5L327 56H109V5Z" fill="black"/>
<path d="M116.6 20.4668C118.807 20.5449 120.579 20.584 121.917 20.584C123.743 20.584 125.394 20.5449 126.868 20.4668C126.907 20.623 126.927 20.7305 126.927 20.7891C126.927 20.8965 126.907 21.0186 126.868 21.1553C125.726 21.2041 124.886 21.3066 124.349 21.4629C123.821 21.6191 123.558 21.873 123.558 22.2246C123.558 22.3516 123.641 22.5713 123.807 22.8838L128.304 30.9551H128.421L133.343 22.7666C133.46 22.5713 133.519 22.3711 133.519 22.166C133.519 21.8633 133.323 21.6436 132.933 21.5068C132.552 21.3604 131.976 21.2432 131.204 21.1553C131.165 20.9404 131.146 20.8086 131.146 20.7598C131.146 20.6816 131.165 20.584 131.204 20.4668C132.464 20.5254 133.606 20.5547 134.632 20.5547C135.735 20.5547 136.844 20.5254 137.957 20.4668C137.996 20.584 138.016 20.6816 138.016 20.7598C138.016 20.916 137.996 21.0479 137.957 21.1553C137.244 21.2236 136.644 21.3701 136.155 21.5947C135.667 21.8193 135.247 22.21 134.896 22.7666L128.816 32.5811C128.816 34.6904 128.865 37.1611 128.963 39.9932C128.973 40.2471 129.085 40.4668 129.3 40.6523C129.515 40.8281 129.822 40.9648 130.223 41.0625C130.633 41.1602 130.975 41.2334 131.248 41.2822C131.531 41.3213 131.897 41.3604 132.347 41.3994C132.386 41.5166 132.405 41.6484 132.405 41.7949C132.405 41.873 132.386 41.9707 132.347 42.0879C130.706 42.0293 129.007 42 127.249 42C125.501 42 123.802 42.0293 122.151 42.0879C122.112 41.9707 122.093 41.873 122.093 41.7949C122.093 41.6289 122.112 41.4971 122.151 41.3994C122.601 41.3604 122.962 41.3213 123.235 41.2822C123.519 41.2334 123.86 41.1602 124.261 41.0625C124.671 40.9648 124.983 40.8281 125.198 40.6523C125.413 40.4668 125.525 40.2471 125.535 39.9932C125.633 37.542 125.696 35.0713 125.726 32.5811L119.998 22.5615C119.617 22.083 119.148 21.7461 118.592 21.5508C118.035 21.3555 117.371 21.2236 116.6 21.1553C116.561 20.9795 116.541 20.8574 116.541 20.7891C116.541 20.6914 116.561 20.584 116.6 20.4668ZM146.116 28.6846C147.083 28.6846 147.952 28.8555 148.724 29.1973C149.505 29.5391 150.169 30.0127 150.716 30.6182C151.263 31.2236 151.683 31.9512 151.976 32.8008C152.269 33.6406 152.415 34.5586 152.415 35.5547C152.415 37.5859 151.844 39.2363 150.701 40.5059C149.568 41.7852 148.04 42.4248 146.116 42.4248C145.159 42.4248 144.29 42.2588 143.509 41.9268C142.737 41.585 142.078 41.1113 141.531 40.5059C140.984 39.8906 140.56 39.1631 140.257 38.3232C139.964 37.4834 139.817 36.5605 139.817 35.5547C139.817 34.5586 139.964 33.6406 140.257 32.8008C140.55 31.9512 140.965 31.2236 141.502 30.6182C142.049 30.0127 142.713 29.5391 143.494 29.1973C144.275 28.8555 145.149 28.6846 146.116 28.6846ZM146.116 29.6367C145.12 29.6367 144.324 30.1201 143.729 31.0869C143.143 32.0537 142.85 33.543 142.85 35.5547C142.85 37.5664 143.143 39.0557 143.729 40.0225C144.324 40.9795 145.12 41.458 146.116 41.458C147.112 41.458 147.903 40.9746 148.489 40.0078C149.085 39.041 149.383 37.5566 149.383 35.5547C149.383 34.5488 149.305 33.6748 149.148 32.9326C148.992 32.1904 148.772 31.5752 148.489 31.0869C148.206 30.5986 147.864 30.2373 147.464 30.0029C147.063 29.7588 146.614 29.6367 146.116 29.6367ZM155.081 29.0068C155.433 29.0264 155.784 29.0459 156.136 29.0654C156.487 29.085 156.766 29.0996 156.971 29.1094C157.176 29.1191 157.366 29.124 157.542 29.124C157.688 29.124 157.859 29.1191 158.055 29.1094C158.25 29.0996 158.514 29.085 158.846 29.0654C159.188 29.0459 159.515 29.0264 159.827 29.0068C160.003 29.0654 160.145 29.2168 160.252 29.4609C160.242 29.5391 160.223 29.6562 160.193 29.8125C160.174 29.959 160.154 30.1396 160.135 30.3545C160.125 30.5596 160.12 30.8135 160.12 31.1162L160.091 38.0742C160.091 39.832 160.623 40.7109 161.688 40.7109C162.674 40.7109 164.075 40.0615 165.892 38.7627C165.892 35.8525 165.848 33.3037 165.76 31.1162C165.76 30.9404 165.726 30.7842 165.657 30.6475C165.589 30.5107 165.481 30.3936 165.335 30.2959C165.198 30.1982 165.071 30.1201 164.954 30.0615C164.847 29.9932 164.686 29.9346 164.471 29.8857C164.256 29.8271 164.104 29.793 164.017 29.7832C163.929 29.7637 163.782 29.7344 163.577 29.6953C163.538 29.5391 163.519 29.4219 163.519 29.3438C163.519 29.2754 163.538 29.1631 163.577 29.0068C163.919 29.0264 164.266 29.0459 164.617 29.0654C164.979 29.085 165.262 29.0996 165.467 29.1094C165.672 29.1191 165.862 29.124 166.038 29.124C166.185 29.124 166.355 29.1191 166.551 29.1094C166.746 29.0996 167.01 29.085 167.342 29.0654C167.684 29.0459 168.011 29.0264 168.323 29.0068C168.372 29.0361 168.411 29.0654 168.44 29.0947C168.479 29.1143 168.509 29.1436 168.528 29.1826C168.558 29.2119 168.577 29.2363 168.587 29.2559C168.597 29.2656 168.611 29.2998 168.631 29.3584C168.65 29.4072 168.665 29.4414 168.675 29.4609C168.597 29.9883 168.558 30.54 168.558 31.1162C168.499 32.5518 168.47 33.7188 168.47 34.6172C168.47 35.0859 168.479 35.8721 168.499 36.9756C168.519 38.0791 168.528 39.0459 168.528 39.876C169.085 40.1982 170.022 40.3984 171.341 40.4766C171.39 40.7207 171.414 40.8477 171.414 40.8574C171.414 40.916 171.39 41.0186 171.341 41.165C169.495 41.3408 167.845 41.7412 166.39 42.3662C166.136 42.2588 165.97 42.127 165.892 41.9707V39.6855C164.915 40.5254 163.992 41.1943 163.123 41.6924C162.264 42.1807 161.395 42.4248 160.516 42.4248C159.402 42.4248 158.611 42.1123 158.143 41.4873C157.684 40.8623 157.444 39.8809 157.425 38.543L157.308 31.1162C157.288 30.8916 157.244 30.7256 157.176 30.6182C157.117 30.501 157.015 30.3936 156.868 30.2959C156.731 30.1982 156.604 30.1201 156.487 30.0615C156.37 29.9932 156.204 29.9346 155.989 29.8857C155.774 29.8271 155.623 29.793 155.535 29.7832C155.447 29.7637 155.296 29.7344 155.081 29.6953C155.042 29.5391 155.022 29.4219 155.022 29.3438C155.022 29.2754 155.042 29.1631 155.081 29.0068ZM181.404 20.4668C183.006 20.5449 185.027 20.584 187.469 20.584C194.373 29.2363 198.084 33.8457 198.602 34.4121C199.119 34.9688 199.378 35.2471 199.378 35.2471H199.495C199.534 33.3721 199.554 31.8633 199.554 30.7207C199.554 28.4648 199.505 25.8135 199.407 22.7666C199.388 21.8877 198.304 21.3506 196.155 21.1553C196.116 20.9404 196.097 20.8086 196.097 20.7598C196.097 20.6816 196.116 20.584 196.155 20.4668C197.728 20.5254 199.119 20.5547 200.33 20.5547C201.111 20.5547 202.42 20.5254 204.256 20.4668C204.295 20.584 204.314 20.6816 204.314 20.7598C204.314 20.916 204.295 21.0479 204.256 21.1553C202.117 21.3506 201.038 21.8877 201.019 22.7666C200.901 25.8232 200.843 28.8359 200.843 31.8047C200.843 36.3457 200.892 39.7637 200.989 42.0586L200.726 42.0879L186.165 24.1729H186.019C185.96 26.7021 185.931 29.2559 185.931 31.834C185.931 34.0996 185.979 36.7461 186.077 39.7734C186.097 40.6621 187.176 41.2041 189.314 41.3994C189.363 41.5654 189.388 41.6973 189.388 41.7949C189.388 41.8926 189.363 41.9902 189.314 42.0879C187.762 42.0293 186.375 42 185.154 42C184.373 42 183.064 42.0293 181.229 42.0879C181.18 41.9902 181.155 41.8926 181.155 41.7949C181.155 41.6289 181.18 41.4971 181.229 41.3994C183.387 41.1943 184.466 40.6523 184.466 39.7734C184.583 36.7266 184.642 33.7188 184.642 30.75C184.642 27.5273 184.603 24.7295 184.524 22.3564C183.704 21.6436 182.664 21.2432 181.404 21.1553C181.346 21.0283 181.316 20.916 181.316 20.8184C181.316 20.6719 181.346 20.5547 181.404 20.4668ZM217.82 34.2363H209.837C209.798 34.8223 209.778 35.3398 209.778 35.7891C209.808 37.2441 210.232 38.4111 211.053 39.29C211.873 40.1592 212.972 40.5938 214.349 40.5938C214.72 40.5938 215.066 40.5547 215.389 40.4766C215.711 40.3887 215.975 40.291 216.18 40.1836C216.395 40.0762 216.614 39.9199 216.839 39.7148C217.063 39.5098 217.225 39.3486 217.322 39.2314C217.43 39.1045 217.571 38.9189 217.747 38.6748C217.923 38.4209 218.04 38.2598 218.099 38.1914C218.333 38.2402 218.523 38.3477 218.67 38.5137C218.182 39.8223 217.425 40.8037 216.399 41.458C215.374 42.1025 214.261 42.4248 213.06 42.4248C212.464 42.4248 211.883 42.3467 211.316 42.1904C210.76 42.0439 210.218 41.7998 209.69 41.458C209.163 41.1162 208.704 40.6963 208.313 40.1982C207.923 39.6904 207.61 39.0605 207.376 38.3086C207.142 37.5469 207.024 36.707 207.024 35.7891C207.024 33.7285 207.654 32.0293 208.914 30.6914C210.174 29.3535 211.722 28.6846 213.558 28.6846C214.368 28.6846 215.071 28.8018 215.667 29.0361C216.272 29.2607 216.741 29.5684 217.073 29.959C217.415 30.3496 217.664 30.7793 217.82 31.248C217.986 31.707 218.069 32.2002 218.069 32.7275C218.069 33.2158 217.986 33.7188 217.82 34.2363ZM213.206 29.6367C212.532 29.6367 211.893 29.9346 211.287 30.5303C210.691 31.126 210.262 32.0293 209.998 33.2402H215.271C215.369 32.8691 215.418 32.5469 215.418 32.2734C215.418 31.5117 215.242 30.8818 214.891 30.3838C214.539 29.8857 213.978 29.6367 213.206 29.6367ZM232.469 34.2363H224.485C224.446 34.8223 224.427 35.3398 224.427 35.7891C224.456 37.2441 224.881 38.4111 225.701 39.29C226.521 40.1592 227.62 40.5938 228.997 40.5938C229.368 40.5938 229.715 40.5547 230.037 40.4766C230.359 40.3887 230.623 40.291 230.828 40.1836C231.043 40.0762 231.263 39.9199 231.487 39.7148C231.712 39.5098 231.873 39.3486 231.971 39.2314C232.078 39.1045 232.22 38.9189 232.396 38.6748C232.571 38.4209 232.688 38.2598 232.747 38.1914C232.981 38.2402 233.172 38.3477 233.318 38.5137C232.83 39.8223 232.073 40.8037 231.048 41.458C230.022 42.1025 228.909 42.4248 227.708 42.4248C227.112 42.4248 226.531 42.3467 225.965 42.1904C225.408 42.0439 224.866 41.7998 224.339 41.458C223.812 41.1162 223.353 40.6963 222.962 40.1982C222.571 39.6904 222.259 39.0605 222.024 38.3086C221.79 37.5469 221.673 36.707 221.673 35.7891C221.673 33.7285 222.303 32.0293 223.562 30.6914C224.822 29.3535 226.37 28.6846 228.206 28.6846C229.017 28.6846 229.72 28.8018 230.315 29.0361C230.921 29.2607 231.39 29.5684 231.722 29.959C232.063 30.3496 232.312 30.7793 232.469 31.248C232.635 31.707 232.718 32.2002 232.718 32.7275C232.718 33.2158 232.635 33.7188 232.469 34.2363ZM227.854 29.6367C227.181 29.6367 226.541 29.9346 225.936 30.5303C225.34 31.126 224.91 32.0293 224.646 33.2402H229.92C230.018 32.8691 230.066 32.5469 230.066 32.2734C230.066 31.5117 229.891 30.8818 229.539 30.3838C229.188 29.8857 228.626 29.6367 227.854 29.6367ZM243.104 20.9355C244.949 20.7598 246.6 20.3594 248.055 19.7344C248.309 19.8418 248.475 19.9736 248.553 20.1299C248.553 31.1943 248.597 37.8154 248.685 39.9932C248.694 40.2471 248.768 40.4668 248.904 40.6523C249.051 40.8281 249.256 40.9648 249.52 41.0625C249.783 41.1602 250.003 41.2334 250.179 41.2822C250.354 41.3213 250.584 41.3604 250.867 41.3994C250.906 41.5557 250.926 41.6777 250.926 41.7656C250.926 41.8242 250.906 41.9316 250.867 42.0879C250.525 42.0684 250.174 42.0488 249.812 42.0293C249.461 42.0098 249.183 41.9951 248.978 41.9854C248.772 41.9756 248.582 41.9707 248.406 41.9707C248.26 41.9707 248.094 41.9756 247.908 41.9854C247.723 41.9951 247.469 42.0098 247.146 42.0293C246.824 42.0488 246.507 42.0684 246.194 42.0879C246.146 42.0684 246.102 42.0439 246.062 42.0146C246.033 41.9951 246.009 41.9805 245.989 41.9707C245.979 41.9512 245.965 41.9268 245.945 41.8975C245.926 41.8584 245.911 41.834 245.901 41.8242C245.892 41.8145 245.877 41.7852 245.857 41.7363C245.848 41.6777 245.838 41.6436 245.828 41.6338C245.867 41.3994 245.887 40.8721 245.887 40.0518C244.275 41.6338 242.786 42.4248 241.419 42.4248C239.915 42.4248 238.689 41.8584 237.742 40.7256C236.795 39.5928 236.321 38.0498 236.321 36.0967C236.321 35.4229 236.399 34.749 236.556 34.0752C236.712 33.4014 236.971 32.7373 237.332 32.083C237.693 31.4287 238.138 30.8525 238.665 30.3545C239.192 29.8564 239.861 29.4561 240.672 29.1533C241.482 28.8408 242.381 28.6846 243.367 28.6846C244.1 28.6846 244.959 28.8408 245.945 29.1533C245.926 27.2979 245.916 24.9883 245.916 22.2246C245.359 21.9023 244.422 21.7021 243.104 21.624C243.064 21.4678 243.045 21.3506 243.045 21.2725C243.045 21.2041 243.064 21.0918 243.104 20.9355ZM242.825 40.5059C243.802 40.5059 244.832 39.9834 245.916 38.9385C245.936 37.9814 245.945 36.1699 245.945 33.5039V31.3799C245.271 30.2178 244.241 29.6367 242.854 29.6367C242.562 29.6367 242.269 29.6807 241.976 29.7686C241.683 29.8564 241.37 30.0322 241.038 30.2959C240.706 30.5596 240.413 30.8965 240.159 31.3066C239.915 31.7168 239.71 32.2881 239.544 33.0205C239.378 33.7432 239.295 34.5781 239.295 35.5254C239.295 36.9707 239.593 38.1621 240.188 39.0996C240.794 40.0371 241.673 40.5059 242.825 40.5059ZM267.874 28.6846C268.841 28.6846 269.71 28.8555 270.481 29.1973C271.263 29.5391 271.927 30.0127 272.474 30.6182C273.021 31.2236 273.44 31.9512 273.733 32.8008C274.026 33.6406 274.173 34.5586 274.173 35.5547C274.173 37.5859 273.602 39.2363 272.459 40.5059C271.326 41.7852 269.798 42.4248 267.874 42.4248C266.917 42.4248 266.048 42.2588 265.267 41.9268C264.495 41.585 263.836 41.1113 263.289 40.5059C262.742 39.8906 262.317 39.1631 262.015 38.3232C261.722 37.4834 261.575 36.5605 261.575 35.5547C261.575 34.5586 261.722 33.6406 262.015 32.8008C262.308 31.9512 262.723 31.2236 263.26 30.6182C263.807 30.0127 264.471 29.5391 265.252 29.1973C266.033 28.8555 266.907 28.6846 267.874 28.6846ZM267.874 29.6367C266.878 29.6367 266.082 30.1201 265.486 31.0869C264.9 32.0537 264.607 33.543 264.607 35.5547C264.607 37.5664 264.9 39.0557 265.486 40.0225C266.082 40.9795 266.878 41.458 267.874 41.458C268.87 41.458 269.661 40.9746 270.247 40.0078C270.843 39.041 271.141 37.5566 271.141 35.5547C271.141 34.5488 271.062 33.6748 270.906 32.9326C270.75 32.1904 270.53 31.5752 270.247 31.0869C269.964 30.5986 269.622 30.2373 269.222 30.0029C268.821 29.7588 268.372 29.6367 267.874 29.6367ZM284.852 41.3994C284.91 41.5166 284.939 41.6387 284.939 41.7656C284.939 41.8633 284.91 41.9707 284.852 42.0879C283.562 42.0293 282.312 42 281.102 42C279.91 42 278.67 42.0293 277.381 42.0879C277.342 41.9316 277.322 41.8242 277.322 41.7656C277.322 41.7168 277.342 41.5947 277.381 41.3994C277.703 41.3604 277.967 41.3213 278.172 41.2822C278.377 41.2334 278.631 41.1602 278.934 41.0625C279.236 40.9648 279.466 40.8281 279.622 40.6523C279.778 40.4668 279.861 40.2471 279.871 39.9932C279.91 39.0264 279.93 37.8545 279.93 36.4775C279.93 36.0186 279.925 35.2373 279.915 34.1338C279.905 33.0303 279.9 32.0635 279.9 31.2334C279.344 30.8916 278.406 30.6914 277.088 30.6328C277.049 30.4766 277.029 30.3545 277.029 30.2666C277.029 30.208 277.049 30.1006 277.088 29.9443C278.982 29.749 280.633 29.3486 282.039 28.7432C282.283 28.8408 282.454 28.9678 282.552 29.124V31.4385C283.499 30.6084 284.407 29.9443 285.276 29.4463C286.146 28.9385 287.024 28.6846 287.913 28.6846C289.026 28.6846 289.812 28.9971 290.271 29.6221C290.74 30.2471 290.984 31.2236 291.004 32.5518L291.15 39.9932C291.16 40.2471 291.233 40.4668 291.37 40.6523C291.517 40.8281 291.722 40.9648 291.985 41.0625C292.259 41.1602 292.483 41.2334 292.659 41.2822C292.835 41.3213 293.064 41.3604 293.348 41.3994C293.387 41.5947 293.406 41.7266 293.406 41.7949C293.406 41.873 293.387 41.9707 293.348 42.0879C292.088 42.0293 290.926 42 289.861 42C288.826 42 287.679 42.0293 286.419 42.0879C286.38 41.9316 286.36 41.8145 286.36 41.7363C286.36 41.668 286.38 41.5557 286.419 41.3994C286.673 41.3604 286.883 41.3213 287.049 41.2822C287.225 41.2334 287.42 41.1602 287.635 41.0625C287.859 40.9648 288.025 40.8281 288.133 40.6523C288.25 40.4668 288.309 40.2471 288.309 39.9932L288.338 33.0352C288.338 31.2676 287.806 30.3838 286.741 30.3838C285.745 30.3838 284.349 31.0479 282.552 32.376C282.552 35.2178 282.591 37.7568 282.669 39.9932C282.679 40.2471 282.752 40.4668 282.889 40.6523C283.035 40.8281 283.24 40.9648 283.504 41.0625C283.768 41.1602 283.987 41.2334 284.163 41.2822C284.339 41.3213 284.568 41.3604 284.852 41.3994ZM295.135 20.9355C296.99 20.7598 298.636 20.3594 300.071 19.7344C300.335 19.8418 300.506 19.9736 300.584 20.1299C300.584 31.1943 300.623 37.8154 300.701 39.9932C300.711 40.1982 300.77 40.3838 300.877 40.5498C300.994 40.7061 301.121 40.833 301.258 40.9307C301.395 41.0186 301.58 41.1016 301.814 41.1797C302.049 41.248 302.229 41.2969 302.356 41.3262C302.493 41.3457 302.674 41.3701 302.898 41.3994C302.957 41.5166 302.986 41.6387 302.986 41.7656C302.986 41.8926 302.957 42 302.898 42.0879C301.609 42.0293 300.359 42 299.148 42C297.957 42 296.717 42.0293 295.428 42.0879C295.389 41.9316 295.369 41.8242 295.369 41.7656C295.369 41.7168 295.389 41.5947 295.428 41.3994C295.75 41.3604 296.009 41.3213 296.204 41.2822C296.409 41.2334 296.663 41.1602 296.966 41.0625C297.278 40.9648 297.513 40.8281 297.669 40.6523C297.825 40.4668 297.908 40.2471 297.918 39.9932C297.957 39.0264 297.977 36.8633 297.977 33.5039C297.977 31.9512 297.972 29.8369 297.962 27.1611C297.952 24.4854 297.947 22.8398 297.947 22.2246C297.391 21.9023 296.453 21.7021 295.135 21.624C295.086 21.4971 295.062 21.3799 295.062 21.2725C295.062 21.1748 295.086 21.0625 295.135 20.9355ZM302.898 29.0068C304.188 29.0654 305.491 29.0947 306.81 29.0947C308.011 29.0947 309.241 29.0654 310.501 29.0068C310.54 29.1631 310.56 29.2852 310.56 29.373C310.56 29.4316 310.54 29.5391 310.501 29.6953C310.208 29.7148 309.974 29.7393 309.798 29.7686C309.622 29.7881 309.393 29.8271 309.109 29.8857C308.836 29.9443 308.626 30.0322 308.479 30.1494C308.343 30.2666 308.274 30.4082 308.274 30.5742C308.274 30.6621 308.313 30.8428 308.392 31.1162L311.365 38.5137H311.453L314.28 31.1162C314.378 30.8721 314.427 30.6621 314.427 30.4863C314.427 30.0371 313.865 29.7734 312.742 29.6953C312.703 29.5391 312.684 29.4316 312.684 29.373C312.684 29.2852 312.703 29.1631 312.742 29.0068C313.885 29.0654 314.598 29.0947 314.881 29.0947C315.701 29.0947 316.741 29.0654 318.001 29.0068C318.04 29.124 318.06 29.2266 318.06 29.3145C318.06 29.373 318.04 29.5 318.001 29.6953C316.78 29.7441 315.989 30.2178 315.628 31.1162L311.102 41.9414H311.131L309.505 46.2041C308.899 47.7861 308.333 48.8555 307.806 49.4121C307.288 49.9688 306.624 50.2471 305.813 50.2471C305.159 50.2471 304.612 50.0518 304.173 49.6611C303.743 49.2705 303.528 48.7578 303.528 48.123C303.528 47.5469 303.689 47.0928 304.012 46.7607C304.334 46.4287 304.734 46.2627 305.213 46.2627C305.652 46.2627 305.989 46.3945 306.224 46.6582C306.468 46.9219 306.59 47.2197 306.59 47.5518C306.59 48.0205 306.38 48.3916 305.96 48.665C306.009 48.8799 306.17 48.9873 306.443 48.9873C306.756 48.9873 307.049 48.8066 307.322 48.4453C307.596 48.0938 307.952 47.3369 308.392 46.1748L310.018 42L305.447 31.1162C305.34 30.8721 305.188 30.6621 304.993 30.4863C304.798 30.3008 304.559 30.1592 304.275 30.0615C304.002 29.9541 303.772 29.8809 303.587 29.8418C303.401 29.793 303.172 29.7441 302.898 29.6953C302.859 29.6172 302.84 29.5098 302.84 29.373C302.84 29.2266 302.859 29.1045 302.898 29.0068Z" fill="#F3F4F6"/>
<path d="M104 5V56.5" stroke="black" stroke-width="2"/>
<path d="M29.2838 24.0826C29.0438 23.205 28.804 22.4528 28.564 21.8259C28.3241 21.1677 28.0693 20.5879 27.7993 20.0864C27.5594 19.5536 27.2745 19.0834 26.9446 18.676C26.6447 18.2685 26.2848 17.8454 25.865 17.4066C24.8454 16.3096 23.6758 15.4947 22.3565 14.9619C21.0669 14.3977 19.6875 14.1156 18.2179 14.1156C16.3587 14.1156 14.6644 14.4917 13.1349 15.244C11.6355 15.9962 10.346 17.0775 9.26643 18.4879C8.21684 19.867 7.40715 21.5438 6.83737 23.5184C6.26758 25.493 5.9827 27.687 5.9827 30.1003C5.9827 33.2345 6.38754 35.9771 7.19722 38.3278C8.00692 40.6785 9.16147 42.512 10.6609 43.8284C12.91 45.709 15.5941 46.6492 18.7128 46.6492C20.8419 46.6492 22.8062 46.226 24.6055 45.3799C26.4049 44.5335 28.2641 43.1546 30.1834 41.2427L31.083 42.1829C29.5236 44.3456 27.5294 46.0224 25.1004 47.2134C22.7013 48.4045 20.0323 49 17.0934 49C14.5445 49 12.2203 48.5611 10.1211 47.6835C8.02191 46.806 6.22261 45.5835 4.72319 44.0165C3.22376 42.418 2.0542 40.5061 1.21453 38.2808C0.404852 36.0554 0 33.5794 0 30.8526C0 27.7497 0.509797 24.9602 1.52942 22.4841C2.54902 19.9767 4.04844 17.8767 6.02767 16.1842C7.58708 14.8678 9.34141 13.8492 11.2907 13.1283C13.2399 12.3761 15.2041 12 17.1834 12C19.7325 12 22.2514 12.4388 24.7405 13.3164C25.5802 13.6298 26.2549 13.7865 26.7646 13.7865C27.2745 13.7865 27.7094 13.6298 28.0693 13.3164C28.4591 13.003 28.7289 12.5642 28.8789 12H29.9584L30.4533 24.0826H29.2838ZM54.384 48.2477H34.3667V47.5894L43.4983 37.4815C45.6574 35.0681 47.3069 32.6705 48.4463 30.2884C49.616 27.9063 50.2007 25.6654 50.2007 23.5654C50.2007 21.2774 49.5409 19.4439 48.2215 18.0648C46.9319 16.6544 45.1627 15.9492 42.9134 15.9492C42.0139 15.9492 41.2191 16.0745 40.5294 16.3253C39.8397 16.5447 39.2099 16.9365 38.6401 17.5006C38.0703 18.0335 37.5306 18.7387 37.0207 19.6162C36.5109 20.4938 36.0012 21.5908 35.4913 22.9072L34.4117 22.6722C34.6216 21.7319 34.8317 20.9013 35.0416 20.1804C35.2814 19.4595 35.5214 18.817 35.7612 18.2528C36.0311 17.6887 36.3159 17.1715 36.616 16.7014C36.9158 16.2313 37.2756 15.7611 37.6955 15.291C38.6551 14.2253 39.7646 13.4104 41.0243 12.8463C42.3137 12.2821 43.6632 12 45.0727 12C46.4222 12 47.6666 12.2507 48.8062 12.7522C49.9757 13.2224 50.9803 13.8805 51.82 14.7268C52.6897 15.5731 53.3645 16.576 53.8443 17.7357C54.3541 18.864 54.609 20.0864 54.609 21.4028C54.609 23.5654 54.0691 25.6967 52.9896 27.7967C51.94 29.8967 50.2906 32.216 48.0416 34.7547L39.4049 44.1575H51.6401C52.2099 44.1575 52.7048 44.1261 53.1245 44.0635C53.5443 43.9695 53.9193 43.7971 54.2491 43.5463C54.609 43.2956 54.9538 42.9352 55.2838 42.465C55.6435 41.9948 56.0635 41.368 56.5433 40.5844L57.2179 40.9136L54.384 48.2477ZM89.2007 24.0826C88.9608 23.205 88.7208 22.4528 88.481 21.8259C88.241 21.1677 87.9861 20.5879 87.7162 20.0864C87.4764 19.5536 87.1914 19.0834 86.8616 18.676C86.5617 18.2685 86.2018 17.8454 85.7819 17.4066C84.7624 16.3096 83.5929 15.4947 82.2733 14.9619C80.9838 14.3977 79.6044 14.1156 78.135 14.1156C76.2756 14.1156 74.5813 14.4917 73.0518 15.244C71.5525 15.9962 70.2629 17.0775 69.1834 18.4879C68.1338 19.867 67.3241 21.5438 66.7544 23.5184C66.1846 25.493 65.8996 27.687 65.8996 30.1003C65.8996 33.2345 66.3045 35.9771 67.1141 38.3278C67.9239 40.6785 69.0784 42.512 70.5778 43.8284C72.8269 45.709 75.5109 46.6492 78.6297 46.6492C80.759 46.6492 82.7232 46.226 84.5224 45.3799C86.3218 44.5335 88.181 43.1546 90.1003 41.2427L91 42.1829C89.4406 44.3456 87.4463 46.0224 85.0173 47.2134C82.6182 48.4045 79.9492 49 77.0104 49C74.4613 49 72.1372 48.5611 70.038 47.6835C67.9388 46.806 66.1396 45.5835 64.6401 44.0165C63.1406 42.418 61.9711 40.5061 61.1315 38.2808C60.3218 36.0554 59.9169 33.5794 59.9169 30.8526C59.9169 27.7497 60.4268 24.9602 61.4463 22.4841C62.466 19.9767 63.9654 17.8767 65.9446 16.1842C67.5039 14.8678 69.2583 13.8492 71.2077 13.1283C73.1569 12.3761 75.1211 12 77.1003 12C79.6493 12 82.1683 12.4388 84.6574 13.3164C85.4971 13.6298 86.1718 13.7865 86.6817 13.7865C87.1914 13.7865 87.6262 13.6298 87.9861 13.3164C88.376 13.003 88.6459 12.5642 88.7958 12H89.8755L90.3702 24.0826H89.2007Z" fill="black"/>
<path d="M355.175 0.81818L345.516 59H329.72L336.993 15.3636H336.652L322.675 22.9773L324.834 9.56818L340.629 0.81818H355.175Z" fill="black"/>
</svg>
